# xmcd
#
# Track frame offsets:
#	150
#	12810
#	25680
#	42862
#	57652
#	68170
#	78555
#	93515
#	105320
#	117877
#	127150
#	141535
#	151872
#	163410
#	176600
#	187027
#	196087
#	211732
#	225632
#	238825
#
# Disc length: 3353 seconds
# Revision: 0
# Processed by: cddbd v1.5.2PL0 Copyright (c) Steve Scherf et al.
# Submitted via: dBpowerAMP V12.0
#
DISCID=150d1714
DTITLE=Hasil Adkins - Moon Over Madison
DYEAR=1990
DGENRE=Country
TTITLE0=When I Saw You Last Night
TTITLE1=Blue Velvet Band
TTITLE2=Lonely Wind-Help Me
TTITLE3=By the Lonesome River
TTITLE4=Goin' Home Tomorrow
TTITLE5=I Had a Dream About You
TTITLE6=This A.D.C
TTITLE7=Have I Told You Lately That I Love You
TTITLE8=So Tell Me Darlin'
TTITLE9=Somebody Help Me
TTITLE10=Lonely Graveyard
TTITLE11=Tomorrow You're Gone
TTITLE12=Moon Over Madison
TTITLE13=Lonely Love
TTITLE14=A Fool in This Game
TTITLE15=Louise
TTITLE16=Love Taker
TTITLE17=I'm Alone
TTITLE18=Lonely Is My Name
TTITLE19=My Home Town
EXTD=
EXTT0=
EXTT1=
EXTT2=
EXTT3=
EXTT4=
EXTT5=
EXTT6=
EXTT7=
EXTT8=
EXTT9=
EXTT10=
EXTT11=
EXTT12=
EXTT13=
EXTT14=
EXTT15=
EXTT16=
EXTT17=
EXTT18=
EXTT19=
PLAYORDER=
